<svg xmlns="http://www.w3.org/2000/svg" viewBox="0 0 512 256" fill="none" role="img" aria-labelledby="title">
  <title id="title">SWRV mark</title>
  <path d="M-12 196C34 144 74 144 116 196C158 248 198 248 240 196C282 144 322 144 366 196C408 248 448 248 524 156" stroke="#080808" stroke-width="86" stroke-linecap="round" stroke-linejoin="round"/>
  <path d="M-12 196C34 144 74 144 116 196C158 248 198 248 240 196C282 144 322 144 366 196C408 248 448 248 524 156" stroke="#1a1a1a" stroke-width="72" stroke-linecap="round" stroke-linejoin="round"/>
  <path d="M-12 196C34 144 74 144 116 196C158 248 198 248 240 196C282 144 322 144 366 196C408 248 448 248 524 156" stroke="#3c3c3c" stroke-width="56" stroke-linecap="round" stroke-linejoin="round"/>
  <path d="M-12 196C34 144 74 144 116 196C158 248 198 248 240 196C282 144 322 144 366 196C408 248 448 248 524 156" stroke="#f2f3ef" stroke-width="38" stroke-linecap="round" stroke-linejoin="round"/>
  <path d="M-12 196C34 144 74 144 116 196C158 248 198 248 240 196C282 144 322 144 366 196C408 248 448 248 524 156" stroke="#808080" stroke-width="22" stroke-linecap="round" stroke-linejoin="round" opacity="0.6"/>
</svg>
